<svg xmlns="http://www.w3.org/2000/svg" viewBox="0 0 394 186.97"><defs><style>.cls-1{fill:#fff;}.cls-2{fill:#1a1a1a;}.cls-3{fill:#333;}.cls-4{fill:#e6e6e6;}</style></defs><title>Recurso 5</title><g id="Capa_2" data-name="Capa 2"><g id="Capa_1-2" data-name="Capa 1"><path class="cls-1" d="M33,65.36h.3l14-31.1h14.3l-11.9,62H36.21l7.2-35.61h-.3l-9.8,21.71h-6.9l-1.7-21.71h-.3l-6,35.61H5.2L17.11,34.56l13.5-.6Z"/><path class="cls-1" d="M157.21,45.56h14.2c-7.9,16.2-17.7,34.91-26.71,51.11H128.1c-2.7-16.7-5.3-34-6.8-50.61l13.8-1c1,11.9,2.4,24.6,4,36.81h.8C146,69.76,151.6,57.36,157.21,45.56Z"/><path class="cls-1" d="M185.2,80.17l6.4-23.31-15.5.5-1-7,21.1-4.8h11.5l-8.3,32c-2.2,8.31-1.6,9.21,17.4,6.21l1.11,7.1C189.3,103.37,180.6,96.77,185.2,80.17Zm9.9-41.71,3.3-14,16-.8-4.3,14.1Z"/><path class="cls-1" d="M227.74,77.75c.14-16.3,14.5-33.77,32.2-33.61,9.5.08,15.36,5.24,15.28,13.44-.1,11.7-11.87,18.69-34.08,20.09.52,8.71,6.71,9.76,30.15,5.67l1.24,7.12C242.39,105.29,227.59,94.25,227.74,77.75Zm14.17-7.47c12.6-.79,20.13-3.82,20.18-9.62,0-3.1-2.35-5.32-6.15-5.36C249,55.24,243.78,62.29,241.91,70.28Z"/><circle class="cls-1" cx="88" cy="70.97" r="29"/><path class="cls-2" d="M77,70.47V52l16,9.24,16,9.24L93,79.71,77,88.94Z"/><path class="cls-3" d="M323.47,65.15,302.28,97.81H278.1l36.27-50.08L296.62.94,320.17,0l11.46,33.44L353,.47h24.33L340.74,50.71l17.74,46.63-23.71.94Z"/><polygon class="cls-4" points="0 110.97 394 110.97 72 186.97 0 110.97"/></g></g></svg>