<svg xmlns="http://www.w3.org/2000/svg" viewBox="0 0 394 216.33"><defs><style>.cls-1{fill:#fff;}.cls-2{fill:#1a1a1a;}.cls-3{font-size:157px;fill:#333;font-family:OperatorMono-BoldItalic, Operator Mono;font-weight:700;font-style:italic;}.cls-4{fill:#e6e6e6;}</style></defs><title>Recurso 3</title><g id="Capa_2" data-name="Capa 2"><g id="Capa_1-2" data-name="Capa 1"><path class="cls-1" d="M33,94.72h.3l14-31.1h14.3l-11.9,62H36.21L43.41,90h-.3l-9.8,21.71h-6.9L24.71,90h-.3l-6,35.61H5.2L17.11,63.92l13.5-.6Z"/><path class="cls-1" d="M157.21,74.92h14.2c-7.9,16.2-17.7,34.91-26.71,51.11H128.1c-2.7-16.7-5.3-34-6.8-50.61l13.8-1c1,11.9,2.4,24.6,4,36.81h.8C146,99.13,151.6,86.72,157.21,74.92Z"/><path class="cls-1" d="M185.2,109.53l6.4-23.31-15.5.5-1-7,21.1-4.8h11.5l-8.3,32c-2.2,8.3-1.6,9.2,17.4,6.2l1.11,7.1C189.3,132.73,180.6,126.13,185.2,109.53Zm9.9-41.71,3.3-14,16-.8-4.3,14.1Z"/><path class="cls-1" d="M227.74,107.11c.14-16.3,14.5-33.77,32.2-33.61,9.5.08,15.36,5.24,15.28,13.44-.1,11.7-11.87,18.69-34.08,20.09.52,8.71,6.71,9.76,30.15,5.67l1.24,7.12C242.39,134.65,227.59,123.61,227.74,107.11Zm14.17-7.47c12.6-.79,20.13-3.82,20.18-9.62,0-3.1-2.35-5.32-6.15-5.36C249,84.6,243.78,91.66,241.91,99.64Z"/><circle class="cls-1" cx="88" cy="100.33" r="29"/><polygon class="cls-2" points="77 99.83 77 81.35 93 90.59 109 99.83 93 109.07 77 118.3 77 99.83"/><text class="cls-3" transform="translate(282.02 127.17)">X</text><polygon class="cls-4" points="0 140.33 394 140.33 72 216.33 0 140.33"/></g></g></svg>